<?xml version="1.0" standalone="no"?>
<!DOCTYPE svg PUBLIC "-//W3C//DTD SVG 20010904//EN"
 "http://www.w3.org/TR/2001/REC-SVG-20010904/DTD/svg10.dtd">
<svg version="1.0" xmlns="http://www.w3.org/2000/svg"
 width="192.000000pt" height="289.000000pt" viewBox="0 0 192.000000 289.000000"
 preserveAspectRatio="xMidYMid meet">
<metadata>
Created by potrace 1.13, written by Peter Selinger 2001-2015
</metadata>
<g transform="translate(0.000000,289.000000) scale(0.100000,-0.100000)"
fill="#F1C40F" stroke="none">
<path d="M855 2843 c-145 -17 -234 -43 -350 -101 -192 -95 -340 -249 -416
-433 -69 -168 -63 -296 19 -382 90 -96 254 -93 336 4 29 34 42 62 87 183 62
170 154 287 257 328 49 19 76 22 187 23 126 0 132 -1 197 -32 116 -54 184
-142 209 -266 10 -47 9 -69 -4 -122 -23 -93 -72 -159 -206 -282 -64 -59 -170
-161 -237 -228 -104 -104 -126 -132 -162 -205 -50 -101 -72 -194 -72 -310 0
-96 18 -147 66 -192 60 -56 165 -75 241 -43 76 32 99 71 138 232 35 148 67
196 231 348 71 65 188 178 260 250 116 116 136 140 176 221 56 111 73 201 64
326 -13 187 -97 346 -255 481 -63 55 -245 147 -336 171 -116 30 -314 44 -430
29z"/>
<path d="M860 571 c-46 -14 -85 -39 -122 -78 -53 -54 -71 -104 -70 -191 0 -61
5 -81 30 -125 32 -56 99 -110 160 -127 120 -33 253 20 313 125 25 44 29 60 29
130 0 92 -18 142 -71 194 -67 68 -182 98 -269 72z"/>
</g>
</svg>
