<?xml version="1.0" standalone="no"?>
<!DOCTYPE svg PUBLIC "-//W3C//DTD SVG 20010904//EN"
 "http://www.w3.org/TR/2001/REC-SVG-20010904/DTD/svg10.dtd">
<svg version="1.0" xmlns="http://www.w3.org/2000/svg"
 width="192.000000pt" height="192.000000pt" viewBox="0 0 192.000000 192.000000"
 preserveAspectRatio="xMidYMid meet">
<metadata>
Created by potrace 1.12, written by Peter Selinger 2001-2015
</metadata>
<g transform="translate(0.000000,192.000000) scale(0.100000,-0.100000)"
fill="#F1C40F">
<path d="M214 1811 c-88 -40 -130 -152 -88 -233 11 -20 145 -169 299 -332 154
-162 281 -302 283 -311 2 -9 -104 -128 -258 -290 -279 -294 -308 -333 -295
-403 24 -128 145 -192 256 -136 14 7 142 135 283 284 146 153 265 270 274 269
9 0 116 -106 237 -235 278 -296 303 -320 354 -334 79 -21 165 24 202 105 25
53 24 93 -4 143 -12 23 -138 163 -280 312 -143 149 -257 277 -255 285 2 8 129
147 283 310 154 163 288 310 298 328 31 57 19 146 -26 196 -27 29 -93 60 -129
61 -70 0 -99 -24 -389 -331 -155 -164 -287 -299 -293 -299 -6 0 -137 133 -291
296 -286 303 -322 334 -390 334 -16 0 -49 -9 -71 -19z"/>
</g>
</svg>
