<?xml version="1.0" standalone="no"?>
<!DOCTYPE svg PUBLIC "-//W3C//DTD SVG 20010904//EN"
 "http://www.w3.org/TR/2001/REC-SVG-20010904/DTD/svg10.dtd">
<svg version="1.0" xmlns="http://www.w3.org/2000/svg"
 width="192.000000pt" height="192.000000pt" viewBox="0 0 192.000000 192.000000"
 preserveAspectRatio="xMidYMid meet">
<metadata>
Created by potrace 1.13, written by Peter Selinger 2001-2015
</metadata>
<g transform="translate(0.000000,192.000000) scale(0.100000,-0.100000)"
fill="#F1C40F" stroke="none">
<path d="M1215 1906 c-22 -7 -67 -25 -100 -40 -33 -16 -80 -37 -105 -48 -25
-11 -72 -33 -105 -48 -33 -15 -81 -37 -106 -49 -25 -12 -50 -21 -55 -21 -13
-1 -47 -31 -67 -60 -35 -50 -24 -89 99 -359 133 -295 145 -311 230 -311 39 0
64 6 87 22 68 44 74 111 22 230 -20 44 -33 83 -30 87 3 3 9 0 13 -6 4 -6 34
-21 66 -33 65 -25 76 -32 151 -105 67 -63 97 -113 129 -209 41 -121 32 -227
-29 -350 -78 -158 -182 -244 -347 -286 -94 -25 -274 11 -383 75 -52 31 -121
99 -152 152 -50 86 -63 140 -64 263 0 122 11 171 60 250 12 19 27 47 33 63 7
15 16 27 20 27 17 0 8 96 -14 136 -31 59 -105 81 -182 53 -32 -12 -107 -110
-135 -176 -7 -18 -17 -33 -22 -33 -4 0 -11 -17 -14 -37 -4 -21 -13 -56 -21
-78 -23 -65 -24 -225 -2 -345 10 -58 23 -114 28 -125 5 -11 21 -47 35 -80 75
-169 248 -326 434 -395 113 -41 263 -57 381 -40 85 13 189 44 245 74 17 9 36
16 43 16 6 0 12 5 12 10 0 6 7 10 15 10 9 0 18 7 21 15 4 8 12 15 20 15 8 0
14 5 14 10 0 6 4 10 9 10 19 0 171 164 171 185 0 3 8 15 19 26 10 11 38 73 62
137 l44 117 0 150 c0 129 -3 160 -23 225 -26 83 -95 217 -139 268 -49 59 -112
122 -120 122 -5 0 -15 9 -23 20 -8 11 -20 20 -26 20 -7 0 -14 4 -16 9 -4 12
-176 101 -194 101 -8 0 -14 4 -14 8 0 8 19 17 110 56 19 8 48 27 64 41 25 21
30 35 34 83 3 48 0 63 -20 92 -38 56 -98 77 -163 56z"/>
</g>
</svg>
