<?xml version="1.0" standalone="no"?>
<!DOCTYPE svg PUBLIC "-//W3C//DTD SVG 20010904//EN"
 "http://www.w3.org/TR/2001/REC-SVG-20010904/DTD/svg10.dtd">
<svg version="1.0" xmlns="http://www.w3.org/2000/svg"
 width="192.000000pt" height="192.000000pt" viewBox="0 0 192.000000 192.000000"
 preserveAspectRatio="xMidYMid meet">
<metadata>
Created by potrace 1.12, written by Peter Selinger 2001-2015
</metadata>
<g transform="translate(0.000000,192.000000) scale(0.100000,-0.100000)"
fill="#F1C40F" stroke="none">
<path d="M767 1682 c-114 -114 -207 -212 -207 -217 0 -5 96 -105 212 -222
l213 -213 82 82 83 83 -73 73 c-66 67 -69 73 -42 67 137 -30 223 -76 306 -165
239 -255 171 -663 -138 -828 -287 -152 -640 -13 -749 297 -19 52 -24 87 -24
169 0 142 30 230 116 338 l33 41 -89 88 -88 87 -51 -63 c-350 -439 -135 -1097
406 -1240 93 -25 266 -29 358 -10 495 106 759 652 534 1107 -111 225 -346 396
-579 421 -30 3 -57 7 -59 10 -3 2 27 36 67 76 l72 72 -78 78 c-42 42 -82 77
-87 77 -6 0 -104 -93 -218 -208z"/>
</g>
</svg>
