<?xml version="1.0" standalone="no"?>
<!DOCTYPE svg PUBLIC "-//W3C//DTD SVG 20010904//EN"
 "http://www.w3.org/TR/2001/REC-SVG-20010904/DTD/svg10.dtd">
<svg version="1.0" xmlns="http://www.w3.org/2000/svg"
 width="192.000000pt" height="118.000000pt" viewBox="0 0 192.000000 118.000000"
 preserveAspectRatio="xMidYMid meet">
<metadata>
Created by potrace 1.12, written by Peter Selinger 2001-2015
</metadata>
<g transform="translate(0.000000,118.000000) scale(0.100000,-0.100000)"
fill="#F1C40F" stroke="none">
<path d="M315 1126 c-43 -19 -70 -53 -88 -111 -39 -121 -149 -552 -149 -581 0
-39 25 -89 55 -108 23 -16 567 -165 628 -173 97 -12 181 94 145 182 -26 62
-56 79 -196 116 -71 18 -130 36 -130 39 1 12 240 120 288 129 69 14 207 14
274 0 90 -19 213 -84 277 -147 68 -69 90 -99 125 -177 46 -100 49 -106 77
-130 68 -57 175 -30 215 55 30 62 19 99 -86 285 -89 156 -279 303 -470 364
-97 31 -114 33 -255 37 -151 3 -255 -14 -360 -61 -17 -8 -41 -18 -55 -23 -14
-6 -56 -28 -94 -51 -39 -22 -71 -39 -73 -37 -2 2 12 60 31 130 36 133 36 166
2 218 -17 26 -81 58 -114 58 -9 -1 -30 -7 -47 -14z"/>
</g>
</svg>
